<svg xmlns="http://www.w3.org/2000/svg" width="1440" height="242" viewBox="0 0 1440 242">
  <defs>
    <style>
      .cls-1, .cls-2, .cls-3 {
        fill: #fff;
        fill-rule: evenodd;
      }

      .cls-1 {
        opacity: 0.1;
      }

      .cls-2 {
        opacity: 0.23;
      }
    </style>
  </defs>
  <path class="cls-1" d="M-114.735,593.426s225.9-71.529,389.614-58.953S623.123,641.9,818.764,652.378c205.436,11.008,303.816,1.572,448.646-64.455s244-49.52,321.14-27.511,7.87,208.3,7.87,208.3L-91.122,767.139Z" transform="translate(0 -533)"/>
  <path class="cls-2" d="M1503.54,625.653s-143.25-58.166-284.93-55.022-242.426,56.594-417.162,99.04-345.316,5.1-462.814-36.158C195.382,583.207,17.5,578.491-69.083,602.072S-184,661.811-184,661.811L-83.251,775,1500.39,723.121Z" transform="translate(0 -533)"/>
  <path class="cls-3" d="M-94.271,653.95S77.317,578.491,316.6,580.063,562.17,639.8,858.119,679.1s525.781-61.31,604.491-51.878,70.84,78.6,70.84,78.6L-84.825,707.4Z" transform="translate(0 -533)"/>
</svg>
